<svg xmlns="http://www.w3.org/2000/svg" width="151.38mm" height="161.15mm" viewBox="0 0 429.1 456.81"><title>livi_logo_valkoinen</title><polygon points="84.3 125.44 84.3 48.48 69.21 48.48 69.21 138.45 117.66 138.45 117.66 125.44 84.3 125.44" fill="#fff"/><rect x="124.58" y="69.24" width="13.84" height="69.21" fill="#fff"/><rect x="152.26" y="69.24" width="13.84" height="69.21" fill="#fff"/><polygon points="242.24 69.24 225.63 69.24 202.37 97.2 193.79 97.2 193.79 48.48 179.95 48.48 179.95 138.45 193.79 138.45 193.79 108.97 202.09 108.97 224.93 138.45 242.24 138.45 213.72 102.88 242.24 69.24" fill="#fff"/><path d="M100.77,162.95c11.9,0,21.31,5.26,21.31,19.1H79.73c0-13.57,9.14-19.1,21-19.1m20.62,42.77s-7.75,5.12-19.93,5.12c-11.21,0-21.45-6.09-21.45-17h55.78a54.34,54.34,0,0,0,.42-6.92c0-27.69-15.5-36-35.43-36s-35.16,8.3-35.16,36,15.92,36,35.85,36c17.58,0,25.61-6.92,25.61-6.92Z" fill="#fff"/><path d="M327.08,162.95c11.91,0,21.32,5.26,21.32,19.1H306c0-13.57,9.14-19.1,21-19.1m20.63,42.77s-7.75,5.12-19.93,5.12c-11.21,0-21.46-6.09-21.46-17h55.78a55.18,55.18,0,0,0,.42-6.92c0-27.69-15.5-36-35.44-36s-35.16,8.3-35.16,36,15.92,36,35.85,36c17.58,0,25.61-6.92,25.61-6.92Z" fill="#fff"/><path d="M207.49,221.5V173.89c0-12.32-3.74-23-26-23C167.21,150.91,159,158,159,158l-1.52-5.68H145.2V221.5H159V173.05s5.12-9.41,18.82-9.41c9.41,0,15.78,2.49,15.78,13.15V221.5Z" fill="#fff"/><path d="M282.93,221.5V173.89c0-12.32-3.74-23-26-23-14.26,0-22.42,7.06-22.42,7.06L233,152.29H220.64V221.5h13.84V173.05s5.12-9.41,18.83-9.41c9.41,0,15.78,2.49,15.78,13.15V221.5Z" fill="#fff"/><rect x="236.56" y="235.34" width="13.84" height="69.21" fill="#fff"/><polygon points="215.66 235.34 195.17 293.06 194.76 293.06 174.41 235.34 159.05 235.34 183.96 304.55 205.97 304.55 231.02 235.34 215.66 235.34" fill="#fff"/><path d="M298.85,234c-14.81,0-20.76,8.44-20.76,8.44l-1.52-7.06H264.24v69.21h13.84V259s3.32-11.63,20.76-11.63Z" fill="#fff"/><path d="M361.14,293.06V256.94c0-21-13.84-23-29.21-23a67,67,0,0,0-28.65,6.37l7.34,10.94s7.75-4.57,20.07-4.57c11.63,0,16.61,3.19,16.61,13.15v5.4s-7.2-3.18-24.5-3.18-23.95,8.44-23.95,20.9,6.78,23,24.64,23c13.15,0,24.5-7.47,24.5-7.47l2.21,6.09h14.53Zm-13.84-6.92s-7.34,7.06-21.87,7.06c-9.83,0-12.73-5.12-12.73-10.8s2.91-8.72,12.73-8.72c13.43,0,21.87,3.18,21.87,3.18Z" fill="#fff"/><path d="M167.07,346.08c18.69,0,28.1,8,28.1,21.87s-10.66,21-31.42,21c-18,0-29.9-8.31-29.9-8.31l8-10.11s10.11,6.09,21.87,6.09c10.38,0,17.58-1.8,17.58-8.72s-6-9.41-18.13-9.41c-19,0-28.79-6.51-28.79-20.35S144.24,317,165,317c19.1,0,29.2,8.3,29.2,8.3l-8,9.83s-7.34-5.82-20.49-5.82c-11.07,0-17.44,1.94-17.44,8.86s6.37,7.89,18.82,7.89" fill="#fff"/><path d="M229.92,376.39c-5.81,0-7.06-1.66-7.06-10.38V331.82H245v-12.6H222.86V306.91h-9.28l-5.26,12.32H197.94v12.6H209v37.1c0,16.2,3.74,20.07,17.58,20.07,8.3,0,20.49-2.49,20.49-2.49l-1.52-11.91a91.11,91.11,0,0,1-15.64,1.8" fill="#fff"/><path d="M284.32,317c-19.93,0-35.85,7.75-35.85,35.44S264.38,389,284.32,389s36.13-8.86,36.13-36.54S304.25,317,284.32,317m0,59.24c-13,0-22-6.09-22-23.81s9-22.7,22-22.7,22.29,5,22.29,22.7-9.27,23.81-22.29,23.81" fill="#fff"/><rect width="429.1" height="456.81" fill="none"/></svg>