<svg xmlns="http://www.w3.org/2000/svg" viewBox="0 0 675.02 205.9"><defs><style>.f{fill:#414042}</style></defs><g id="b"><g id="c"><path style="fill:none" d="M0 0h675.02v205.9H0z"/><path class="f" d="M229.88 138.68v20.19h10.77v2.35h-13.46v-22.53h2.69ZM247.72 138.68v2.57h-2.57v-2.57h2.57Zm0 6.26v16.27h-2.57v-16.27h2.57ZM256.08 138.68v2.57h-2.57v-2.57h2.57Zm0 6.26v16.27h-2.57v-16.27h2.57ZM267.66 153.61l-3.22 3.63v3.97h-2.57v-23.16h2.57v16.18l8.01-9.29h2.79l-5.88 6.92 6.38 9.36h-2.85l-5.23-7.6ZM292.41 153.92h-12.27c.34 3.41 2.69 5.32 5.95 5.32 1.63 0 3.47-.38 4.95-.97l.66 2.03c-1.88.78-3.66 1.22-5.85 1.22-4.66 0-8.29-3.07-8.29-8.45s3.94-8.45 7.79-8.45c4.19 0 7.17 3.07 7.17 7.86 0 .44-.03 1.16-.09 1.44Zm-12.24-2.13h9.7c-.09-3.16-2.03-4.91-4.54-4.91-2.66 0-4.73 1.63-5.16 4.91ZM310.82 150.85v10.36h-2.57V151.1c0-2.82-1.5-4.19-3.79-4.19-1.53 0-3.22.44-4.76 1.35v12.96h-2.57v-16.27h2.35v1.19c1.53-.91 3.6-1.5 5.6-1.5 1.88 0 3.25.53 4.26 1.53 1.13 1.13 1.47 2.63 1.47 4.69ZM330.13 150.85v10.36h-2.57V151.1c0-2.82-1.5-4.19-3.79-4.19-1.53 0-3.22.44-4.76 1.35v12.96h-2.57v-16.27h2.35v1.19c1.53-.91 3.6-1.5 5.6-1.5 1.88 0 3.25.53 4.26 1.53 1.13 1.13 1.47 2.63 1.47 4.69ZM349.57 153.92H337.3c.34 3.41 2.69 5.32 5.95 5.32 1.63 0 3.47-.38 4.94-.97l.66 2.03c-1.88.78-3.66 1.22-5.85 1.22-4.66 0-8.29-3.07-8.29-8.45s3.94-8.45 7.79-8.45c4.19 0 7.17 3.07 7.17 7.86 0 .44-.03 1.16-.09 1.44Zm-12.24-2.13h9.7c-.09-3.16-2.03-4.91-4.54-4.91-2.66 0-4.73 1.63-5.16 4.91ZM361.09 150.38v2.25h-7.61v-2.25h7.61ZM376.58 166.31c-.75.75-1.81 1.16-3.22 1.16-.94 0-1.97-.19-2.75-.53l.53-1.97c.59.19 1.19.28 1.88.28 1.41 0 2.16-.69 2.16-2.75v-17.56h2.57v17.71c0 1.72-.38 2.88-1.16 3.66Zm1.16-27.63v2.57h-2.57v-2.57h2.57ZM395.98 161.09v.12h-2.5c-.13-.34-.25-.66-.31-1-1.28.75-3.38 1.31-5.01 1.31-3.72 0-5.85-1.78-5.85-5.13 0-3.07 2.63-5.13 6.98-5.13 1.47 0 2.44.09 3.44.25v-.69c0-2.69-1.5-3.91-4.01-3.91-1.6 0-3.25.28-4.88.88l-.78-1.97c2.07-.81 3.94-1.19 5.85-1.19 2.38 0 3.85.63 4.88 1.63 1.06 1.06 1.47 2.5 1.47 4.35v5.63c0 1.53.16 3.29.72 4.85Zm-7.51-1.82c1.44 0 3.04-.34 4.26-1.03v-4.69c-1.06-.19-1.72-.28-3.38-.28-2.97 0-4.41 1.19-4.41 3.13s1.22 2.88 3.54 2.88ZM410.95 144.94l3.1 8.14 1.91 5.07 1.85-5.07 3.07-8.14h2.69l-6.38 16.27h-2.6l-6.45-16.27h2.82ZM429.91 138.68v2.57h-2.57v-2.57h2.57Zm0 6.26v16.27h-2.57v-16.27h2.57ZM449.47 153.92H437.2c.34 3.41 2.69 5.32 5.95 5.32 1.63 0 3.47-.38 4.95-.97l.66 2.03c-1.88.78-3.66 1.22-5.85 1.22-4.66 0-8.29-3.07-8.29-8.45s3.94-8.45 7.79-8.45c4.19 0 7.17 3.07 7.17 7.86 0 .44-.03 1.16-.09 1.44Zm-12.24-2.13h9.7c-.09-3.16-2.03-4.91-4.54-4.91-2.66 0-4.73 1.63-5.16 4.91ZM464.37 145.66l-.72 2c-1.44-.53-2.85-.85-4.57-.85-2.07 0-3.35.81-3.35 2.1s.63 2.07 3.54 2.82c4.51 1.16 6.13 2.57 6.13 5.07 0 2.88-2.47 4.73-6.63 4.73-2.07 0-4.16-.41-6.2-1.06l.72-2c1.78.56 3.69.88 5.48.88 2.72 0 4.1-.88 4.1-2.41 0-1.19-1.03-2.13-4.41-2.97-4.1-1.03-5.26-2.54-5.26-4.82 0-2.57 2.25-4.51 5.88-4.51 2.07 0 3.63.41 5.29 1.03ZM478.08 160.93c-.94.38-2.25.59-3.19.59-1.22 0-2.38-.31-3.13-1.06s-1.09-1.82-1.09-3.38v-9.92h-2.69v-2.22h2.69v-4.1h2.57v4.1h4.13v2.22h-4.13v9.64c0 1.75.75 2.5 2.1 2.5.75 0 1.56-.19 2.32-.41l.44 2.03ZM484.59 138.68v2.57h-2.57v-2.57h2.57Zm0 6.26v16.27h-2.57v-16.27h2.57ZM504 150.85v10.36h-2.57V151.1c0-2.82-1.5-4.19-3.79-4.19-1.53 0-3.22.44-4.76 1.35v12.96h-2.57v-16.27h2.35v1.19c1.53-.91 3.6-1.5 5.6-1.5 1.88 0 3.25.53 4.26 1.53 1.13 1.13 1.47 2.63 1.47 4.69ZM517.61 160.93c-.94.38-2.25.59-3.19.59-1.22 0-2.38-.31-3.13-1.06s-1.09-1.82-1.09-3.38v-9.92h-2.69v-2.22h2.69v-4.1h2.57v4.1h4.13v2.22h-4.13v9.64c0 1.75.75 2.5 2.1 2.5.75 0 1.56-.19 2.32-.41l.44 2.03ZM534.23 161.09v.12h-2.5c-.13-.34-.25-.66-.31-1-1.28.75-3.38 1.31-5.01 1.31-3.72 0-5.85-1.78-5.85-5.13 0-3.07 2.63-5.13 6.98-5.13 1.47 0 2.44.09 3.44.25v-.69c0-2.69-1.5-3.91-4.01-3.91-1.6 0-3.25.28-4.88.88l-.78-1.97c2.07-.81 3.94-1.19 5.85-1.19 2.38 0 3.85.63 4.88 1.63 1.06 1.06 1.47 2.5 1.47 4.35v5.63c0 1.53.16 3.29.72 4.85Zm-9.2-19.84h-2.57v-2.57h2.57v2.57Zm1.69 18.03c1.44 0 3.04-.34 4.26-1.03v-4.69c-1.06-.19-1.72-.28-3.38-.28-2.97 0-4.41 1.19-4.41 3.13s1.22 2.88 3.54 2.88Zm5.82-18.03h-2.57v-2.57h2.57v2.57ZM539.31 144.94l3.1 8.14 1.91 5.07 1.85-5.07 3.07-8.14h2.69l-6.38 16.27h-2.6l-6.45-16.27h2.82ZM558.24 138.68v2.57h-2.57v-2.57h2.57Zm0 6.26v16.27h-2.57v-16.27h2.57ZM566.54 149.07v12.14h-2.57v-16.27h2.35v1.91c1.56-1.03 4.04-1.94 5.92-2.22l.44 2.29c-1.94.31-4.32 1.09-6.13 2.16ZM588.76 161.09v.12h-2.5c-.13-.34-.25-.66-.31-1-1.28.75-3.38 1.31-5.01 1.31-3.72 0-5.85-1.78-5.85-5.13 0-3.07 2.63-5.13 6.98-5.13 1.47 0 2.44.09 3.44.25v-.69c0-2.69-1.5-3.91-4.01-3.91-1.6 0-3.25.28-4.88.88l-.78-1.97c2.07-.81 3.94-1.19 5.85-1.19 2.38 0 3.85.63 4.88 1.63 1.06 1.06 1.47 2.5 1.47 4.35v5.63c0 1.53.16 3.29.72 4.85Zm-7.51-1.82c1.44 0 3.04-.34 4.26-1.03v-4.69c-1.06-.19-1.72-.28-3.38-.28-2.97 0-4.41 1.19-4.41 3.13s1.22 2.88 3.54 2.88ZM604.19 145.66l-.72 2c-1.44-.53-2.85-.85-4.57-.85-2.07 0-3.35.81-3.35 2.1s.63 2.07 3.54 2.82c4.51 1.16 6.13 2.57 6.13 5.07 0 2.88-2.47 4.73-6.63 4.73-2.07 0-4.16-.41-6.2-1.06l.72-2c1.78.56 3.69.88 5.48.88 2.72 0 4.1-.88 4.1-2.41 0-1.19-1.03-2.13-4.41-2.97-4.1-1.03-5.26-2.54-5.26-4.82 0-2.57 2.25-4.51 5.88-4.51 2.07 0 3.63.41 5.29 1.03ZM617.9 160.93c-.94.38-2.25.59-3.19.59-1.22 0-2.38-.31-3.13-1.06s-1.09-1.82-1.09-3.38v-9.92h-2.69v-2.22h2.69v-4.1h2.57v4.1h4.13v2.22h-4.13v9.64c0 1.75.75 2.5 2.1 2.5.75 0 1.56-.19 2.32-.41l.44 2.03ZM636.18 153.07c0 5.04-3.57 8.45-8.04 8.45s-8.04-3.41-8.04-8.45 3.57-8.45 8.04-8.45 8.04 3.41 8.04 8.45Zm-2.63 0c0-3.85-2.28-6.17-5.41-6.17s-5.41 2.32-5.41 6.17 2.28 6.17 5.41 6.17 5.41-2.32 5.41-6.17Z"/><path d="M514.03 87.2c-3.4 9.12-12.16 15.63-22.46 15.63s-19.07-6.51-22.46-15.63h-16.98c3.85 18.25 20.04 31.96 39.44 31.96s35.59-13.71 39.44-31.96h-16.98ZM38.46 40.48v14.75h23.61v62.17h14.74V55.23h22.85V40.48h-61.2Zm319.21 0 .04 76.7h15.32v-76.7h-15.36Zm-244.48 0v13.11l27.97-.03c10.52 0 15 3.26 15 10.91 0 7.08-3.8 10.48-12.32 11.02h-30.65v41.69h15.9V90.32h13.6l14.82 26.86h17.04l-14.77-26.86h39.5l-11.33 26.86h16.22l11.33-26.86h23.85l11.32 26.86h16.22l-11.32-26.86h31.39l.03 26.86h15.32V90.32h31.08V75.45l-84.09.02-14.6-34.62h-16.22l14.6 34.62h-63.52c.77-1.54 2.4-5.23 2.4-11.42 0-15.86-9.84-23.57-30.07-23.57h-28.71Zm173.76 0v15.85l52.17-.04V40.48h-52.17Zm319.67 0-17.61 53.4-17.61-53.4h-19.42l-10.59 76.7h15.42l7.29-51.6 17.02 51.6h15.77l17.04-51.6 7.28 51.6h15.37l-10.59-76.7h-19.37ZM451.74 72.95h16.61c2.63-10.39 12.02-18.09 23.23-18.09s20.6 7.7 23.23 18.09h16.61c-2.86-19.46-19.58-34.42-39.84-34.42s-36.98 14.96-39.84 34.42m-62.19 5.68c0 22.27 18.05 40.32 40.32 40.32 5.5 0 10.74-1.11 15.51-3.1l-8.28-14.34c-2.28.72-4.71 1.11-7.23 1.11-13.25 0-23.99-10.74-23.99-23.99s10.74-23.99 23.99-23.99c2.54 0 4.99.4 7.29 1.14l8.28-14.34a40.143 40.143 0 0 0-15.57-3.12c-22.27 0-40.32 18.05-40.32 40.32" style="fill:#002c74"/></g></g></svg>