<svg version="1" xmlns="http://www.w3.org/2000/svg" width="933.333" height="933.333" viewBox="0 0 700.000000 700.000000"><path d="M339.8 87.5c-.2.1-4.3.5-9.3.9-7.8.5-16.9 1.8-30.5 4.1-14.5 2.5-56.9 16.3-57 18.6 0 .3 53.6 54.2 119.2 119.7L481.4 350 362.5 468.9c-65.4 65.4-119.1 119.3-119.2 119.8-.8 2.2 40.5 16 56.2 18.7 1.7.3 4.1.7 5.4 1 1.3.3 4.9.8 8 1.2 3.1.3 5.9.8 6.2 1 1 .5 21.1 1.7 30.4 1.8 9.6 0 30.7-1.2 32.8-1.9.6-.2 3.2-.6 5.7-.9 29.5-3.7 68.5-17.3 93.5-32.5 2.8-1.7 5.6-3.4 6.4-3.7 5.2-2.6 25-17.3 34.6-25.8 15.9-14 33-33.1 43.6-48.8 4.5-6.5 16.9-26.8 16.9-27.5 0-.2 2-4.5 4.4-9.6 3.9-8.2 6.6-14.7 11.1-26.9 3.8-9.8 10.5-39.4 12-51.8 6.9-60.6-5.3-117.9-35.8-168.5-16.1-26.6-35-48.1-62.4-70.8-14.2-11.8-45.7-30-64.8-37.4-15.3-6-35.8-12.1-46.5-13.8-1.9-.3-5.7-1-8.5-1.5-9.8-1.8-23.9-3-40.6-3.4-6.5-.2-12-.2-12.1-.1zM123.1 307.1c-11.2 2.1-23.8 11.1-29.5 21-12.4 21.7-4.3 49.5 17.7 60.4 20 9.9 41.5 4.8 55.1-12.9 17.8-23.3 5.8-58.8-22.7-67.3-6-1.8-14.7-2.3-20.6-1.2z"/><path d="M218.9 309.9c-.1 5.1-.1 69.3 0 77.2l.1 6.7 21.7-.2 21.8-.1v-87l-21.7-.1-21.8-.1-.1 3.6zM344.5 306.7c-13.3 1.8-26.2 10.6-32.6 22.3-7.4 13.4-7.1 30.4.9 43.5 14.8 24.4 49 28.2 68.5 7.6 19.1-20.2 15.1-52-8.4-67.2-7.3-4.6-19.8-7.4-28.4-6.2z"/></svg>