<?xml version="1.0" encoding="utf-8"?>
<!-- Generator: Adobe Illustrator 21.1.0, SVG Export Plug-In . SVG Version: 6.00 Build 0)  -->
<svg version="1.1" id="Layer_1" xmlns="http://www.w3.org/2000/svg" xmlns:xlink="http://www.w3.org/1999/xlink" x="0px" y="0px"
	 width="114px" height="36px" viewBox="0 0 114 36" enable-background="new 0 0 114 36" xml:space="preserve">
<g display="none">
	<circle display="inline" cx="-42" cy="66" r="12"/>
	<polygon display="inline" fill="#606060" points="-36,66 -42,72 -42,60 	"/>
	<circle display="inline" fill="#606060" cx="-40" cy="66" r="2"/>
	<circle display="inline" fill="#606060" cx="-54" cy="66" r="3"/>
	<rect x="-48" y="63" display="inline" fill="#606060" width="3" height="6"/>
</g>
<g>
	<path fill="#FFFFFF" d="M18,0c-2.6,0-5.1,0.6-7.4,1.6L27,18L10.6,34.4c2.3,1,4.8,1.6,7.4,1.6c9.9,0,18-8.1,18-18
		C36,8.1,27.9,0,18,0z"/>
	<circle opacity="0.25" fill="#FFFFFF" cx="3" cy="18" r="3"/>
	<rect x="9" y="15" opacity="0.5" fill="#FFFFFF" width="3" height="6"/>
	<circle opacity="0.75" fill="#FFFFFF" cx="18" cy="18" r="3"/>
	<path fill="#FFFFFF" d="M65,6v24h-4L48,12.7V30h-4V6h4l13,17.3V6H65z M79,14.9L86.5,30H91L79,6L67,30h4.5L79,14.9z M105,6H93v24h4
		v-6v-4v-2v-8h8c2.8,0,5,2.2,5,5s-2.2,5-5,5h-6l4,4h2c5,0,9-4,9-9C114,10,110,6,105,6z"/>
</g>
</svg>
