<?xml version="1.0" encoding="utf-8"?>
<!-- Generator: Adobe Illustrator 21.1.0, SVG Export Plug-In . SVG Version: 6.00 Build 0)  -->
<svg version="1.1" id="Layer_1" xmlns="http://www.w3.org/2000/svg" xmlns:xlink="http://www.w3.org/1999/xlink" x="0px" y="0px"
	 width="112px" height="24px" viewBox="0 0 112 24" enable-background="new 0 0 112 24" xml:space="preserve">
<polygon fill="#FFFFFF" points="59,0 59,17.3 46,0 42,0 42,24 46,24 46,6.7 59,24 63,24 63,0 "/>
<polygon fill="#FFFFFF" points="77,8.9 84.5,24 89,24 77,0 65,24 69.5,24 "/>
<path fill="#FFFFFF" d="M22,0c-3.3,0-6.3,1.3-8.5,3.5L22,12l-8.5,8.5c2.2,2.2,5.2,3.5,8.5,3.5c6.6,0,12-5.4,12-12
	C34,5.4,28.6,0,22,0z"/>
<circle opacity="0.6" fill="#FFFFFF" cx="12" cy="12" r="2"/>
<rect x="16" y="10" opacity="0.8" fill="#FFFFFF" width="2" height="4"/>
<circle opacity="0.2" fill="#FFFFFF" cx="2" cy="12" r="2"/>
<rect x="6" y="10" opacity="0.4" fill="#FFFFFF" width="2" height="4"/>
<path fill="#FFFFFF" d="M103,0H91v24h4v-6v-4v-2V4h8c2.8,0,5,2.2,5,5s-2.2,5-5,5h-6l4,4h2c5,0,9-4,9-9C112,4,108,0,103,0z"/>
</svg>
