<svg id="Layer_1" data-name="Layer 1" xmlns="http://www.w3.org/2000/svg" viewBox="0 0 82.58 27.71"><defs><style>.cls-1{fill:#fff;}.cls-2{fill:#f03b41;}.cls-3{fill:#e3eb1f;}</style></defs><title>Artboard 3</title><path class="cls-1" d="M37.59,24a8.46,8.46,0,0,1-3.28-.59,6.58,6.58,0,0,1-2.38-1.66,7.06,7.06,0,0,1-1.44-2.54A10.46,10.46,0,0,1,30,15.94a10,10,0,0,1,.52-3.27A7.92,7.92,0,0,1,32,10.1a6.73,6.73,0,0,1,2.33-1.69,7.53,7.53,0,0,1,3.08-.61A12.26,12.26,0,0,1,39.49,8a10.3,10.3,0,0,1,2,.56l-.63,2.35a6.4,6.4,0,0,0-1.44-.48,8.7,8.7,0,0,0-1.74-.17,4.37,4.37,0,0,0-3.54,1.45,6.43,6.43,0,0,0-1.24,4.25,8.57,8.57,0,0,0,.29,2.28A4.46,4.46,0,0,0,34.07,20a3.88,3.88,0,0,0,1.56,1.15,6.05,6.05,0,0,0,2.31.4,8.68,8.68,0,0,0,2-.21,7.46,7.46,0,0,0,1.4-.45l.38,2.32a2.85,2.85,0,0,1-.68.28,9.45,9.45,0,0,1-1,.24q-.57.11-1.2.18a10.62,10.62,0,0,1-1.23.07m11.13-8.85a18.38,18.38,0,0,1,1.88,1.7c.67.67,1.32,1.4,2,2.18s1.26,1.57,1.83,2.37a26,26,0,0,1,1.45,2.25H52.61c-.42-.7-.9-1.4-1.44-2.13s-1.11-1.41-1.71-2.08a24,24,0,0,0-1.81-1.82,17.55,17.55,0,0,0-1.75-1.4v7.43H43.14V1.06L45.9.59V14.66l1.57-1.57c.58-.58,1.14-1.16,1.69-1.76s1.08-1.16,1.58-1.7.92-1,1.27-1.44h3.24c-.46.49-1,1-1.48,1.63S52.68,11,52.1,11.62l-1.73,1.81-1.65,1.7m12.77,6.51c.65,0,1.23,0,1.73-.05a7.38,7.38,0,0,0,1.26-.16v-4.6a3.41,3.41,0,0,0-1-.26,12.3,12.3,0,0,0-1.62-.1,10.34,10.34,0,0,0-1.32.09,4,4,0,0,0-1.28.37,2.8,2.8,0,0,0-1,.77A2,2,0,0,0,58,19a2.24,2.24,0,0,0,.95,2.07,5,5,0,0,0,2.59.58ZM61.25,7.8a8.12,8.12,0,0,1,2.8.43,4.42,4.42,0,0,1,2.84,3.09,8.94,8.94,0,0,1,.3,2.39v9.65l-1,.16c-.43.07-.91.14-1.44.2L63,23.88c-.62.05-1.24.07-1.85.07a10.73,10.73,0,0,1-2.41-.26,5.41,5.41,0,0,1-1.9-.85,3.89,3.89,0,0,1-1.24-1.53A5.28,5.28,0,0,1,55.16,19a4.33,4.33,0,0,1,.52-2.19,4.2,4.2,0,0,1,1.41-1.49,6.71,6.71,0,0,1,2.08-.83,11.18,11.18,0,0,1,2.49-.27,8.43,8.43,0,0,1,.86,0c.3,0,.58.07.85.12l.7.13.41.09v-.77a6.72,6.72,0,0,0-.14-1.35,3.08,3.08,0,0,0-.54-1.19,2.74,2.74,0,0,0-1-.83A4.14,4.14,0,0,0,61,10.18a12.93,12.93,0,0,0-2.39.19,8.52,8.52,0,0,0-1.53.4l-.33-2.29A9.21,9.21,0,0,1,58.55,8a16.22,16.22,0,0,1,2.7-.22m8.07.83c.64-.16,1.48-.32,2.53-.5a21.56,21.56,0,0,1,3.62-.27,7.79,7.79,0,0,1,3.06.52,4.73,4.73,0,0,1,1.94,1.46,5.57,5.57,0,0,1,1,2.24A13.5,13.5,0,0,1,81.79,15v8.67H79V15.55a13,13,0,0,0-.19-2.43,4.11,4.11,0,0,0-.64-1.64,2.56,2.56,0,0,0-1.19-.9,5.16,5.16,0,0,0-1.84-.28l-.92,0-.9.07c-.29,0-.55.06-.78.1l-.49.09v13H69.32v-15"/><path class="cls-2" d="M25.14,2.13H1.45L13.29,14,25.14,2.13"/><path class="cls-3" d="M.79,2.78V26.47L12.64,14.63.79,2.78"/><path class="cls-1" d="M25.79,2.78,1.45,27.13H25.79V2.78"/></svg>