<svg id="Layer_1" data-name="Layer 1" xmlns="http://www.w3.org/2000/svg" viewBox="0 0 81 54"><defs><style>.cls-1{fill:#039;}.cls-2{fill:#fc0;}</style></defs><title>Artboard 2</title><rect class="cls-1" width="81" height="54"/><path class="cls-2" d="M39.43,9.76,37.7,8.51h2.13l.65-2,.66,2h2.13L41.54,9.76l.65,2-1.71-1.25-1.7,1.25ZM30,14.14l1.7-1.25,1.71,1.25-.65-2,1.73-1.25H32.32l-.66-2-.65,2H28.88l1.73,1.25Zm-4.75,1.17-.65,2H22.42l1.73,1.24-.64,2,1.7-1.25,1.7,1.25-.64-2L28,17.35H25.86ZM22.84,28.17l1.71,1.24-.65-2,1.73-1.24H23.5l-.66-2-.65,2H20.06l1.73,1.24-.65,2Zm3,6.82-.65-2-.65,2H22.42l1.73,1.25-.64,2L25.21,37l1.7,1.25-.64-2L28,35Zm6.47,6.47-.65-2-.66,2H28.89l1.73,1.24-.65,2,1.71-1.25,1.7,1.25-.65-2,1.73-1.24Zm8.81,2.34-.66-2-.65,2H37.7l1.73,1.25-.65,2,1.71-1.25,1.7,1.25-.65-2,1.73-1.25ZM50,41.46l-.66-2-.65,2H46.51l1.73,1.24-.65,2,1.7-1.25L51,44.72l-.65-2,1.73-1.24ZM56.41,35l-.65-2-.65,2H53l1.74,1.25-.65,2L55.76,37l1.7,1.25-.65-2L58.55,35Zm4.48-8.86H58.75l-.65-2-.65,2H55.32l1.73,1.25-.65,2,1.7-1.25,1.71,1.25-.65-2Zm-6.83-5.55,1.7-1.25,1.7,1.25-.65-2,1.74-1.24H56.41l-.65-2-.65,2H53l1.74,1.24ZM49.32,8.85l-.65,2H46.53l1.73,1.25-.65,2,1.71-1.25L51,14.14l-.64-2,1.73-1.25H50Z"/></svg>